<svg width="316" height="315" viewBox="0 0 316 315" fill="none" xmlns="http://www.w3.org/2000/svg">
<path d="M146.49 114.858C143.793 101.012 139.707 75.0846 139.668 55.4599C139.581 11.637 147.591 0.0196882 157.501 2.49783e-05C167.411 -0.0196382 176.264 11.5642 176.351 55.3871C176.39 75.0118 171.673 100.957 169.031 114.813C166.246 129.422 160.025 151.13 158.279 157.118C163.626 155.555 186.012 149.106 200.963 146.225C214.815 143.556 240.75 139.521 260.375 139.521C304.198 139.521 315.799 147.554 315.799 157.464C315.799 167.373 304.198 176.204 260.375 176.204C240.75 176.204 214.815 171.435 200.963 168.766C185.991 165.881 163.564 159.369 158.257 157.806C159.971 163.683 166.234 185.515 169.031 200.186C171.673 214.043 176.39 239.988 176.351 259.613C176.264 303.436 167.411 315.02 157.501 315C147.591 314.98 139.581 303.363 139.668 259.54C139.707 239.915 143.793 213.988 146.49 200.142C149.336 185.528 155.607 163.814 157.355 157.861C151.729 159.516 129.639 165.914 114.836 168.766C100.985 171.435 75.0491 176.204 55.4244 176.204C11.6014 176.204 0 167.373 0 157.464C0 147.554 11.6014 139.521 55.4244 139.521C75.0491 139.521 100.985 143.556 114.836 146.225C129.619 149.073 151.67 155.411 157.333 157.063C155.555 151.003 149.324 129.41 146.49 114.858Z" fill="#F26631"/>
<path d="M126.698 126.276C117.439 115.633 100.936 95.2226 91.0903 78.2466C69.1035 40.3384 70.2321 26.2723 78.8043 21.3004C87.3765 16.3285 100.836 21.9335 122.823 59.8418C132.669 76.8178 141.556 101.646 146.196 114.967C151.089 129.011 156.555 150.921 158.037 156.979C161.886 152.953 178.048 136.174 189.556 126.204C200.217 116.966 220.661 100.504 237.656 90.6918C275.608 68.7803 289.672 69.9367 294.627 78.5188C299.581 87.1009 293.95 100.549 255.998 122.461C239.002 132.273 214.157 141.111 200.827 145.725C186.418 150.712 163.739 156.287 158.362 157.586C162.785 161.819 179.125 177.595 188.883 188.902C198.099 199.581 215.157 219.692 224.936 236.706C246.772 274.702 244.896 289.161 236.304 294.098C227.712 299.036 214.967 292.98 193.13 254.985C183.352 237.97 173.927 213.473 169.339 200.134C164.497 186.055 159.072 164.114 157.609 158.085C153.563 162.331 137.632 178.917 126.239 188.788C115.577 198.026 95.5011 215.124 78.5056 224.936C40.5538 246.848 26.0913 245.001 21.1364 236.418C16.1815 227.836 22.2119 215.079 60.1637 193.167C77.1592 183.355 101.638 173.881 114.968 169.267C129.195 164.343 151.46 158.805 157.191 157.405C152.621 153.046 136.428 137.461 126.698 126.276Z" fill="#F26631"/>
<path d="M115.266 146.06C101.926 141.473 77.4292 132.048 60.4143 122.269C22.419 100.433 16.3634 87.6872 21.3012 79.0954C26.239 70.5035 40.6978 68.6277 78.6931 90.4638C95.708 100.242 115.818 117.301 126.498 126.517C137.757 136.233 153.445 152.475 157.758 156.98C159.079 151.569 164.686 128.957 169.667 114.568C174.281 101.238 183.754 76.7596 193.567 59.7641C215.478 21.8123 228.236 15.7819 236.818 20.7368C245.4 25.6917 247.247 40.1542 225.336 78.106C215.523 95.1015 198.425 115.178 189.188 125.839C179.203 137.363 162.35 153.529 158.343 157.344C164.29 158.798 186.328 164.29 200.433 169.203C213.754 173.844 238.582 182.731 255.558 192.577C293.466 214.563 299.071 228.023 294.099 236.595C289.127 245.168 275.061 246.296 237.153 224.309C220.177 214.463 199.766 197.96 189.123 188.702C177.891 178.931 162.222 162.642 157.94 158.152C156.56 163.852 151.055 186.182 146.124 200.427C141.51 213.757 132.673 238.603 122.86 255.598C100.949 293.55 87.5004 299.182 78.9183 294.227C70.3362 289.272 69.1798 275.208 91.0913 237.257C100.904 220.261 117.366 199.818 126.603 189.157C136.462 177.778 152.975 161.85 157.238 157.772C151.101 156.282 129.285 150.882 115.266 146.06Z" fill="#F26631"/>
<path d="M115.266 146.06C101.926 141.473 77.4292 132.048 60.4143 122.269C22.419 100.433 16.3634 87.6872 21.3012 79.0954C26.239 70.5035 40.6978 68.6277 78.6931 90.4638C95.708 100.242 115.818 117.301 126.498 126.517C137.757 136.233 153.445 152.475 157.758 156.98C159.079 151.569 164.686 128.957 169.667 114.568C174.281 101.238 183.754 76.7596 193.567 59.7641C215.478 21.8123 228.236 15.7819 236.818 20.7368C245.4 25.6917 247.247 40.1542 225.336 78.106C215.523 95.1015 198.425 115.178 189.188 125.839C179.203 137.363 162.35 153.529 158.343 157.344C164.29 158.798 186.328 164.29 200.433 169.203C213.754 173.844 238.582 182.731 255.558 192.577C293.466 214.563 299.071 228.023 294.099 236.595C289.127 245.168 275.061 246.296 237.153 224.309C220.177 214.463 199.766 197.96 189.123 188.702C177.891 178.931 162.222 162.642 157.94 158.152C156.56 163.852 151.055 186.182 146.124 200.427C141.51 213.757 132.673 238.603 122.86 255.598C100.949 293.55 87.5004 299.182 78.9183 294.227C70.3362 289.272 69.1798 275.208 91.0913 237.257C100.904 220.261 117.366 199.818 126.603 189.157C136.462 177.778 152.975 161.85 157.238 157.772C151.101 156.282 129.285 150.882 115.266 146.06Z" fill="#F26631"/>
</svg>
